Coordinates
version=1
nRows=19
nColumns=24
inDegrees=yes

Units are S.I. units (second, meters, Newtons, ...)
Angles are in degrees.

endheader
time	pelvis_tilt	pelvis_list	pelvis_rotation	pelvis_tx	pelvis_ty	pelvis_tz	hip_flexion_r	hip_adduction_r	hip_rotation_r	knee_angle_r	ankle_angle_r	subtalar_angle_r	mtp_angle_r	hip_flexion_l	hip_adduction_l	hip_rotation_l	knee_angle_l	ankle_angle_l	subtalar_angle_l	mtp_angle_l	lumbar_extension	lumbar_bending	lumbar_rotation
      1.09200000	     -3.65760825	      4.95873909	     -2.10690915	      0.17814868	      0.90310349	      0.31086539	     19.34775758	     -8.99276825	     -5.78840962	    -74.18090315	     -4.29331318	     11.44558352	      8.77667445	     14.39556593	      7.78181433	     -5.17717247	    -18.56461959	     10.30718783	     -5.05626406	      2.71386268	     -5.56497685	     -7.45078853	      2.34940746
      1.09616667	     -3.67444272	      4.76680176	     -2.05706098	      0.18346449	      0.90423178	      0.31071230	     20.06748143	     -8.71972992	     -5.86955096	    -74.08068275	     -3.80907330	     11.27961853	      8.75958832	     13.74298020	      7.63962143	     -5.04413507	    -17.99542570	     10.35215409	     -4.97731806	      2.71096584	     -5.51227531	     -7.22622545	      2.27541286
      1.10033333	     -3.61202910	      4.56539197	     -1.97420845	      0.18877025	      0.90547990	      0.31046312	     20.66368977	     -8.45997252	     -6.00468692	    -73.88864478	     -3.33124736	     11.12177762	      8.66794249	     12.97380893	      7.52520324	     -4.72413890	    -17.35480194	     10.32133586	     -5.15704614	      2.69006233	     -5.61861195	     -6.96365280	      2.00592256
      1.10450000	     -3.58879091	      4.36303018	     -1.89586058	      0.19408964	      0.90662107	      0.31023039	     21.29004014	     -8.19131874	     -6.13410171	    -73.63362605	     -2.84914849	     10.94822753	      8.57470674	     12.26081302	      7.39267172	     -4.46975668	    -16.74063522	     10.29976987	     -5.25306499	      2.66727670	     -5.64032063	     -6.70545084	      1.81510152
      1.10866667	     -3.55712598	      4.14036865	     -1.80941798	      0.19940751	      0.90774658	      0.30999883	     21.88021153	     -7.89620497	     -6.27616787	    -73.29437458	     -2.38192491	     10.75323881	      8.49934094	     11.54835229	      7.23141528	     -4.22502294	    -16.14655389	     10.29814561	     -5.30616485	      2.64719893	     -5.67705903	     -6.43107144	      1.64507186
      1.11283333	     -3.54156646	      3.91517206	     -1.71329314	      0.20470359	      0.90878976	      0.30975258	     22.47302589	     -7.60052271	     -6.43037106	    -72.89975961	     -1.87705403	     10.53578190	      8.45852448	     10.87503040	      7.05848506	     -4.01719733	    -15.59092465	     10.27855204	     -5.30157117	      2.63438029	     -5.70332906	     -6.13510609	      1.50864514
      1.11700000	     -3.47151239	      3.68771556	     -1.60842255	      0.21005375	      0.90990995	      0.30946654	     22.96939393	     -7.31803403	     -6.60999836	    -72.40620691	     -1.48918986	     10.31515319	      8.35650085	     10.10002980	      6.90064630	     -3.69782629	    -14.94817574	     10.26459995	     -5.46500481	      2.60592364	     -5.77513244	     -5.85880389	      1.22977008
      1.12116667	     -3.42660920	      3.44859477	     -1.49370026	      0.21536866	      0.91093124	      0.30919090	     23.47762152	     -7.01758224	     -6.79660115	    -71.85764013	     -1.04603134	     10.07475631	      8.27204049	      9.38520494	      6.71422458	     -3.42967560	    -14.36855821	     10.25106456	     -5.53299400	      2.58177220	     -5.82692526	     -5.55694706	      1.03764823
      1.12533333	     -3.36857915	      3.21084485	     -1.37385352	      0.22068819	      0.91192512	      0.30889976	     23.95013526	     -6.72524316	     -6.99349943	    -71.24374749	     -0.62186256	      9.81671593	      8.17958981	      8.65753180	      6.52676118	     -3.16051428	    -13.78664238	     10.23190778	     -5.61190714	      2.55602397	     -5.89091029	     -5.25506327	      0.82364175
      1.12950000	     -3.34432956	      2.97032884	     -1.24219440	      0.22597851	      0.91279853	      0.30860591	     24.44433047	     -6.43159292	     -7.20041256	    -70.57994031	     -0.13602935	      9.55368087	      8.13617146	      8.00314661	      6.32084321	     -2.96272986	    -13.27327900	     10.20488723	     -5.59356895	      2.54342274	     -5.91231294	     -4.94477545	      0.69031241
      1.13366667	     -3.25118513	      2.75139789	     -1.11080032	      0.23128869	      0.91375008	      0.30828332	     24.84184459	     -6.17279608	     -7.40806365	    -69.84351896	      0.21266918	      9.25516146	      7.93846802	      7.21045079	      6.16129845	     -2.57756213	    -12.62014921	     10.13235068	     -5.84190930	      2.49447413	     -6.03237777	     -4.67646178	      0.30191987
      1.13783333	     -3.17924912	      2.49569265	     -0.97006020	      0.23657903	      0.91460656	      0.30797727	     25.23686616	     -5.87333483	     -7.63709783	    -69.03772556	      0.57097774	      8.96151756	      7.83315348	      6.49946768	      5.93533626	     -2.33552632	    -12.09423059	     10.17932015	     -5.84835136	      2.47113254	     -6.12024518	     -4.34072156	      0.14611280
      1.14200000	     -3.10208761	      2.25947530	     -0.82555549	      0.24185394	      0.91541009	      0.30767229	     25.61235324	     -5.59828124	     -7.86418912	    -68.18261918	      0.92706091	      8.64144047	      7.71119802	      5.78073691	      5.72730598	     -2.07713922	    -11.55189569	     10.17835557	     -5.89602561	      2.44463495	     -6.21449546	     -4.03695154	     -0.08735902
      1.14616667	     -3.02565241	      2.02577348	     -0.67470317	      0.24712557	      0.91614657	      0.30736354	     25.97089324	     -5.33120399	     -8.09785244	    -67.27537103	      1.27557748	      8.31673733	      7.59237735	      5.07199427	      5.51670088	     -1.82648461	    -11.02496369	     10.17968532	     -5.93792433	      2.42022379	     -6.30408532	     -3.73814067	     -0.31476214
      1.15033333	     -2.94403192	      1.79933646	     -0.52027933	      0.25238051	      0.91683013	      0.30705304	     26.30799820	     -5.07586594	     -8.33418120	    -66.31543880	      1.59303446	      7.97492999	      7.46603420	      4.36335671	      5.30864167	     -1.57641421	    -10.50327212	     10.18546927	     -5.98292177	      2.39624221	     -6.40268250	     -3.44808120	     -0.55277499
      1.15450000	     -2.86231162	      1.58646221	     -0.36740480	      0.25762102	      0.91744199	      0.30675543	     26.63285901	     -4.83583416	     -8.56322783	    -65.31036625	      1.89901292	      7.62964737	      7.32813302	      3.66149740	      5.10945074	     -1.33492469	     -9.99041040	     10.19043728	     -6.02652796	      2.37159328	     -6.50194168	     -3.17314276	     -0.79320721
      1.15866667	     -2.78296558	      1.38134140	     -0.21012374	      0.26284645	      0.91798044	      0.30646500	     26.94577317	     -4.60712064	     -8.79454601	    -64.25909441	      2.17741154	      7.27284864	      7.18357891	      2.97152126	      4.91198999	     -1.10485037	     -9.49084992	     10.20387026	     -6.06047547	      2.34761806	     -6.59801781	     -2.91401985	     -1.03243503
      1.16283333	     -2.71725400	      1.17677584	     -0.04183659	      0.26805126	      0.91843788	      0.30618093	     27.25276740	     -4.38078130	     -9.03248788	    -63.15370622	      2.48049578	      6.92199325	      7.08101503	      2.32538017	      4.70510122	     -0.91260273	     -9.04711067	     10.20616738	     -6.05211879	      2.33144687	     -6.67359361	     -2.65563683	     -1.21981118
      1.16700000	     -2.63328452	      1.02671513	      0.10805512	      0.27325884	      0.91882596	      0.30588654	     27.54598152	     -4.21854538	     -9.24404268	    -62.04034702	      2.70862398	      6.56309603	      6.64614187	      1.60362568	      4.56975460	     -0.60068768	     -8.48096749	     10.16448403	     -6.25961940	      2.26361696	     -6.77020612	     -2.45065931	     -1.62982985
